<svg xmlns="http://www.w3.org/2000/svg" viewBox="0 0 42.5 42.5"><defs><style>.a{fill:#333;}.b{fill:#fff;}</style></defs><title>Recurso 31</title><rect class="a" x="0.25" y="0.25" width="42" height="42" rx="3.75"/><path class="b" d="M38.5.5A3.5,3.5,0,0,1,42,4V38.5A3.5,3.5,0,0,1,38.5,42H4A3.5,3.5,0,0,1,.5,38.5V4A3.5,3.5,0,0,1,4,.5H38.5m0-.5H4A4,4,0,0,0,0,4V38.5a4,4,0,0,0,4,4H38.5a4,4,0,0,0,4-4V4a4,4,0,0,0-4-4Z"/><polygon points="12.48 3.75 3.75 3.75 3.75 8.11 11.71 12.48 12.48 12.48 12.48 3.75"/><rect x="14.42" y="3.75" width="8.73" height="8.73"/><rect x="25.08" y="3.75" width="8.73" height="8.73"/><rect x="35.75" y="3.75" width="2.91" height="8.73"/><polygon points="3.75 14.42 3.75 23.14 12.48 23.14 12.48 17.17 7.36 14.42 3.75 14.42"/><polygon points="14.42 23.14 23.14 23.14 23.14 22.9 14.42 18.21 14.42 23.14"/><polygon points="23.14 14.42 15.25 14.42 23.14 18.74 23.14 14.42"/><polygon points="33.81 23.14 33.81 14.42 25.09 14.42 25.09 19.8 31.18 23.14 33.81 23.14"/><rect x="35.75" y="14.42" width="2.91" height="8.73"/><rect x="3.75" y="25.08" width="8.73" height="8.73"/><rect x="14.42" y="25.08" width="8.73" height="8.73"/><polygon points="25.09 25.09 25.09 33.81 33.81 33.81 33.81 28.64 27.21 25.09 25.09 25.09"/><polygon points="38.66 33.81 38.66 31.24 35.75 29.68 35.75 33.81 38.66 33.81"/><polygon points="35.75 25.65 38.66 27.24 38.66 25.09 35.75 25.09 35.75 25.65"/><rect x="3.75" y="35.75" width="8.73" height="2.91"/><rect x="14.42" y="35.75" width="8.73" height="2.91"/><rect x="25.08" y="35.75" width="8.73" height="2.91"/><rect x="35.75" y="35.75" width="2.91" height="2.91"/></svg>