<svg xmlns="http://www.w3.org/2000/svg" viewBox="0 0 42.5 42.5"><defs><style>.a{fill:#fff;stroke-miterlimit:10;stroke-width:0.5px;}.a,.b,.c,.d,.e,.f,.g{stroke:#000;}.b,.c,.d,.e,.f,.g{fill:none;}.c,.d,.e,.g{stroke-width:0.39px;}.c{stroke-dasharray:1.17 0.78;}.d{stroke-dasharray:1.15 0.76;}.e{stroke-dasharray:1.18 0.79;}.f{stroke-width:0.78px;}.g{stroke-dasharray:1.12 0.73;}</style></defs><title>Recurso 30</title><path class="a" d="M21.25,42.25a21,21,0,1,0-21-21,21,21,0,0,0,21,21"/><circle class="b" cx="21.25" cy="21.39" r="0.63"/><line class="c" x1="21.11" y1="21.27" x2="30.51" y2="9.73"/><line class="d" x1="21.11" y1="21.39" x2="30.51" y2="32.44"/><line class="e" x1="21.11" y1="21.44" x2="10.14" y2="28.53"/><path class="f" d="M15.85,11.73c1.53,1,2,2.11,3,3,1.2,1.11,2.84.54,4.15-.57.92-.78,3.06-4.07,3.82-4.6a3,3,0,0,1,4.37,1c1.63,2.29-1,5.09-2.19,6.24-1.52,1.53-2.51,3.93-1.74,5.46.46.92,2.65,2.4,3.49,3.28,1.68,1.74,1.41,5.82-.66,7.33A4.86,4.86,0,0,1,23.28,32c-1-1.53-2.08-4.37-3.28-4.59a5.05,5.05,0,0,0-3.93,1.53C14.87,30,11.49,31,10,28.67a3,3,0,0,1,.65-4.15c1.1-.94,3.82-1.89,4.26-2.84s.12-2.41-2.07-4.25-1.91-4.48,0-5.7A2.38,2.38,0,0,1,15.85,11.73Z"/><line class="g" x1="20.65" y1="21.16" x2="12.49" y2="12.08"/></svg>