<svg xmlns="http://www.w3.org/2000/svg" viewBox="0 0 42 42"><defs><style>.a{fill:#fff;}.b{fill:none;stroke:#000;}</style></defs><title>Recurso 28</title><circle class="a" cx="21" cy="21" r="20.75"/><path d="M21,.5A20.5,20.5,0,1,1,.5,21,20.53,20.53,0,0,1,21,.5M21,0A21,21,0,1,0,42,21,21,21,0,0,0,21,0Z"/><polygon class="b" points="9.33 10.96 9.33 26.96 13.45 31.04 29.41 31.04 29.41 10.96 9.33 10.96"/><polyline class="b" points="13.44 31.14 13.44 26.84 9.14 26.84"/><line class="b" x1="19.37" y1="16" x2="19.37" y2="25"/><line class="b" x1="23.87" y1="20.5" x2="14.87" y2="20.5"/></svg>