<svg id="Capa_1" data-name="Capa 1" xmlns="http://www.w3.org/2000/svg" viewBox="0 0 272 60"><defs><style>.cls-1{fill:#fff;fill-rule:evenodd;}</style></defs><title>sprite-bit</title><path class="cls-1" d="M50.43,55H47.92A25,25,0,0,1,24.24,31.27V28.76A25,25,0,1,1,50.43,55Zm.74-18.13a3.42,3.42,0,1,1,3.41-3.42A3.41,3.41,0,0,1,51.17,36.85Zm0-13.72a10.44,10.44,0,0,0-3.46.6v-5.9a1.58,1.58,0,0,0-1.57-1.58H42.43a1.57,1.57,0,0,0-1.57,1.58V33.9a6.27,6.27,0,0,0,.61,3H40.11a1.57,1.57,0,0,0-1.57,1.57V42.2a1.57,1.57,0,0,0,1.57,1.58H51.44a10.32,10.32,0,0,0-.25-20.64Zm148.63,1.38a1,1,0,0,0-1.09,1.09V42.34a1.09,1.09,0,0,0,.3.78,1.1,1.1,0,0,0,1.88-.78V25.6a1.1,1.1,0,0,0-.31-.79,1.09,1.09,0,0,0-.78-.3m-55.66.18a7,7,0,0,0-3.56,1,7.66,7.66,0,0,0-2.73,2.56V17.59a1,1,0,0,0-.31-.78,1,1,0,0,0-.78-.31,1.06,1.06,0,0,0-1.09,1.09V42.34a1.06,1.06,0,0,0,.31.78,1.08,1.08,0,0,0,.78.31,1.06,1.06,0,0,0,1.09-1.09V32a4.55,4.55,0,0,1,.84-2.64,6.25,6.25,0,0,1,5.09-2.68,4.15,4.15,0,0,1,3.52,1.48A6.15,6.15,0,0,1,148.45,32v10.3a1.06,1.06,0,0,0,.31.78,1.08,1.08,0,0,0,.78.31,1.06,1.06,0,0,0,1.09-1.09V32a8.36,8.36,0,0,0-1.6-5.3,5.79,5.79,0,0,0-4.87-2m25,13.3a6.8,6.8,0,0,1-2.36,2.76,6.35,6.35,0,0,1-6.84,0A6.61,6.61,0,0,1,157.65,38a9.11,9.11,0,0,1-.84-4,8.68,8.68,0,0,1,.86-3.91A6.57,6.57,0,0,1,160,27.42a6.31,6.31,0,0,1,6.8,0,6.9,6.9,0,0,1,2.36,2.75A8.67,8.67,0,0,1,170,34,9,9,0,0,1,169.19,38ZM171,24.83a1,1,0,0,0-.78.33,1.12,1.12,0,0,0-.31.8v2.26a7,7,0,0,0-2.73-2.77,7.84,7.84,0,0,0-4-1.05,7.92,7.92,0,0,0-4.31,1.23,8.7,8.7,0,0,0-3.07,3.44,10.79,10.79,0,0,0-1.12,5,11.08,11.08,0,0,0,1.1,5,8.77,8.77,0,0,0,3.06,3.5,7.8,7.8,0,0,0,4.38,1.27,7.29,7.29,0,0,0,4-1.13,7.66,7.66,0,0,0,2.73-2.76v2.44A1.06,1.06,0,0,0,171,43.43a1.1,1.1,0,0,0,.78-.31,1.06,1.06,0,0,0,.31-.78V26a1.12,1.12,0,0,0-.31-.8A1,1,0,0,0,171,24.83ZM191.76,38a6.88,6.88,0,0,1-2.36,2.79,6.3,6.3,0,0,1-6.83,0A6.75,6.75,0,0,1,180.2,38a9.61,9.61,0,0,1,0-7.88,6.26,6.26,0,0,1,2.36-2.71,6.36,6.36,0,0,1,3.45-1,6.07,6.07,0,0,1,3.4,1,6.64,6.64,0,0,1,2.36,2.71,8.68,8.68,0,0,1,.86,3.91A8.86,8.86,0,0,1,191.76,38Zm-1.21-12.32a8.08,8.08,0,0,0-4.37-1.23,7.3,7.3,0,0,0-3.89,1.09,7.75,7.75,0,0,0-2.76,2.87V17.63a1.09,1.09,0,1,0-2.18,0V42.41a1.12,1.12,0,0,0,.31.8,1,1,0,0,0,.78.33,1,1,0,0,0,.78-.33,1.12,1.12,0,0,0,.31-.8V40a8.34,8.34,0,0,0,2.86,2.74,7.32,7.32,0,0,0,3.83,1,7.72,7.72,0,0,0,4.34-1.27A8.73,8.73,0,0,0,193.62,39a11.06,11.06,0,0,0,1.11-5,10.91,10.91,0,0,0-1.11-5A8.55,8.55,0,0,0,190.55,25.63Zm22.86-.72h-3.63v-4a1.09,1.09,0,1,0-2.18,0v4h-2.66a1,1,0,0,0-.74.29,1,1,0,0,0,0,1.45,1,1,0,0,0,.74.29h2.66v12.3a4.75,4.75,0,0,0,.7,2.91,2.86,2.86,0,0,0,1.48,1.1,7.63,7.63,0,0,0,1.74.18,2.67,2.67,0,0,0,1.38-.35,1,1,0,0,0,.57-1,1,1,0,0,0-.22-.46.74.74,0,0,0-.57-.27,2,2,0,0,0-.5.09,2.15,2.15,0,0,1-.55.09,1.81,1.81,0,0,1-1.34-.49,2.61,2.61,0,0,1-.51-1.88V26.94h3.63a1,1,0,0,0,.73-.27.94.94,0,0,0,.29-.71,1,1,0,0,0-.31-.73.94.94,0,0,0-.71-.32M231.31,38A6.72,6.72,0,0,1,229,40.75a6.33,6.33,0,0,1-6.83,0A6.63,6.63,0,0,1,219.77,38a9.1,9.1,0,0,1-.83-4,8.68,8.68,0,0,1,.85-3.91,6.72,6.72,0,0,1,2.36-2.71,6.31,6.31,0,0,1,6.8,0,6.82,6.82,0,0,1,2.36,2.75,8.68,8.68,0,0,1,.86,3.86A9,9,0,0,1,231.31,38Zm1.8-13.16a1,1,0,0,0-.78.33,1.16,1.16,0,0,0-.31.8v2.26a7,7,0,0,0-2.72-2.77,8.16,8.16,0,0,0-8.31.18,8.63,8.63,0,0,0-3.07,3.44,10.79,10.79,0,0,0-1.13,5,11,11,0,0,0,1.11,5,8.82,8.82,0,0,0,3,3.5,7.82,7.82,0,0,0,4.38,1.27,7.33,7.33,0,0,0,4-1.13A7.55,7.55,0,0,0,232,39.9v2.44a1.09,1.09,0,1,0,2.18,0V26a1.15,1.15,0,0,0-.3-.8A1,1,0,0,0,233.11,24.83Zm13.64,2.11a1,1,0,0,0,.72-.27.91.91,0,0,0,.29-.71,1.06,1.06,0,0,0-.3-.73,1,1,0,0,0-.71-.32h-3.64v-4a1.06,1.06,0,0,0-1.09-1.1,1.08,1.08,0,0,0-.78.31,1.06,1.06,0,0,0-.31.79v4h-2.65a1,1,0,0,0-.75.29,1,1,0,0,0,0,1.45,1,1,0,0,0,.75.29h2.65v12.3a4.75,4.75,0,0,0,.71,2.91,2.8,2.8,0,0,0,1.47,1.1,7.66,7.66,0,0,0,1.75.18,2.67,2.67,0,0,0,1.38-.35,1,1,0,0,0,.56-1,1,1,0,0,0-.22-.46.72.72,0,0,0-.56-.27,2.1,2.1,0,0,0-.51.09,2.15,2.15,0,0,1-.55.09,1.84,1.84,0,0,1-1.34-.49,2.61,2.61,0,0,1-.51-1.88V26.94h3.64m-153,9.73a3.33,3.33,0,1,1,3.33-3.33A3.33,3.33,0,0,1,93.75,36.67Zm0-13.36a9.91,9.91,0,0,0-3.37.59V18.15a1.54,1.54,0,0,0-1.53-1.54H85.24a1.54,1.54,0,0,0-1.53,1.54V33.8a6,6,0,0,0,.6,2.92H83a1.54,1.54,0,0,0-1.54,1.53v3.64A1.54,1.54,0,0,0,83,43.42H94a10.06,10.06,0,0,0-.24-20.11Zm16.62-.87a3.33,3.33,0,1,0-3.32-3.33,3.33,3.33,0,0,0,3.32,3.33m19.45,14.29s-1,0-1.45,0a5.18,5.18,0,0,1-1.1-.13,3.32,3.32,0,0,1-2.64-3V30h2.91a1.54,1.54,0,0,0,1.54-1.53V24.85a1.54,1.54,0,0,0-1.54-1.53h-2.93V18.15a1.54,1.54,0,0,0-1.54-1.53h-3.63a1.54,1.54,0,0,0-1.53,1.53l0,15.65a9.88,9.88,0,0,0,10,9.62h1.84a1.54,1.54,0,0,0,1.53-1.54V38.26a1.54,1.54,0,0,0-1.53-1.53M112.21,23.31h-3.63a1.54,1.54,0,0,0-1.53,1.54v17a1.54,1.54,0,0,0,1.53,1.53h3.63a1.54,1.54,0,0,0,1.54-1.53v-17a1.54,1.54,0,0,0-1.54-1.54m87.61-3.86a1.27,1.27,0,1,0,1.27,1.27,1.27,1.27,0,0,0-1.27-1.27"/></svg>