<svg xmlns="http://www.w3.org/2000/svg" viewBox="0 0 42.5 42.5"><defs><style>.a{fill:#fff;}.b,.c,.d{fill:none;stroke:#000;}.b{stroke-width:0.5px;}.c{stroke-width:2px;}</style></defs><title>Recurso 23</title><path class="a" d="M21.25,42.25a21,21,0,1,0-21-21,21,21,0,0,0,21,21"/><circle class="b" cx="21.25" cy="21.25" r="21"/><circle class="c" cx="21.25" cy="15.85" r="6.4"/><polygon points="27.23 18.72 21.26 30.2 15.44 19.12 17.41 22.08 19.82 22.92 23.3 22.5 25.12 21.52 27.23 18.72"/><polygon class="d" points="27.23 18.72 21.26 30.2 15.44 19.12 17.41 22.08 19.82 22.92 23.3 22.5 25.12 21.52 27.23 18.72"/><line class="d" x1="21.25" y1="12.45" x2="21.25" y2="18.45"/><line class="d" x1="24.38" y1="15.45" x2="18.38" y2="15.45"/></svg>