<svg xmlns="http://www.w3.org/2000/svg" viewBox="0 0 42 42"><defs><style>.a{fill:#fff;}.b{fill:none;stroke:#fff;}</style></defs><title>Recurso 18</title><circle cx="21" cy="21" r="20.75"/><path class="a" d="M21,.5A20.5,20.5,0,1,1,.5,21,20.53,20.53,0,0,1,21,.5M21,0A21,21,0,1,0,42,21,21,21,0,0,0,21,0Z"/><path class="b" d="M21.35,32.94v-4.5H30.7a2,2,0,0,0,2-2v-13a2,2,0,0,0-2-2h-19a2,2,0,0,0-2,2v13a2,2,0,0,0,2,2h5.89Z"/><line class="b" x1="12.2" y1="16.65" x2="30.2" y2="16.65"/><line class="b" x1="12.2" y1="20.12" x2="30.2" y2="20.12"/><line class="b" x1="12.2" y1="23.58" x2="30.2" y2="23.58"/></svg>