<svg xmlns="http://www.w3.org/2000/svg" viewBox="0 0 42 42"><defs><style>.a,.b,.c{fill:#fff;}.b,.c{stroke:#fff;}.c{stroke-miterlimit:10;}</style></defs><title>Recurso 15</title><circle cx="21" cy="21" r="20.75"/><path class="a" d="M21,.5A20.5,20.5,0,1,1,.5,21,20.53,20.53,0,0,1,21,.5M21,0A21,21,0,1,0,42,21,21,21,0,0,0,21,0Z"/><line class="b" x1="11.05" y1="29.68" x2="22.18" y2="13.55"/><path class="c" d="M11.05,31.68a2,2,0,1,0-2-2,2,2,0,0,0,2,2"/><path class="c" d="M22.18,15.55a2,2,0,1,0-2-2,2,2,0,0,0,2,2"/><line class="b" x1="29.07" y1="25.68" x2="22.05" y2="13.2"/><path class="c" d="M29.07,27.68a2,2,0,1,0-2-2,2,2,0,0,0,2,2"/></svg>