<svg xmlns="http://www.w3.org/2000/svg" viewBox="0 0 42 42"><defs><style>.a{fill:#fff;}.b,.c{fill:none;stroke:#fff;}.b{stroke-width:1.31px;}.c{stroke-width:2.62px;}</style></defs><title>Recurso 19</title><circle cx="21" cy="21" r="20.75"/><path class="a" d="M21,.5A20.5,20.5,0,1,1,.5,21,20.53,20.53,0,0,1,21,.5M21,0A21,21,0,1,0,42,21,21,21,0,0,0,21,0Z"/><line class="b" x1="14.32" y1="15.69" x2="27.68" y2="15.69"/><line class="c" x1="14.32" y1="12.8" x2="27.68" y2="12.8"/><line class="b" x1="14.32" y1="29.85" x2="27.68" y2="29.85"/><line class="b" x1="14.97" y1="16.12" x2="14.97" y2="29.99"/><line class="b" x1="27.03" y1="16.12" x2="27.03" y2="29.99"/><line class="b" x1="24.01" y1="16.12" x2="24.01" y2="29.99"/><line class="b" x1="21" y1="16.12" x2="21" y2="29.99"/><line class="b" x1="17.99" y1="16.12" x2="17.99" y2="29.99"/></svg>