<svg xmlns="http://www.w3.org/2000/svg" viewBox="0 0 42.5 42.5"><defs><style>.a{fill:#fff;}.b,.c{fill:none;stroke:#000;}.b{stroke-width:0.5px;}</style></defs><title>Recurso 21</title><path class="a" d="M21.25,42.25a21,21,0,1,0-21-21,21,21,0,0,0,21,21"/><circle class="b" cx="21.25" cy="21.25" r="21"/><line class="c" x1="11.3" y1="29.93" x2="22.43" y2="13.8"/><path d="M11.3,31.93a2,2,0,1,0-2-2,2,2,0,0,0,2,2"/><path d="M22.43,15.8a2,2,0,1,0-2-2,2,2,0,0,0,2,2"/><line class="c" x1="29.32" y1="25.93" x2="22.3" y2="13.45"/><path d="M29.32,27.93a2,2,0,1,0-2-2,2,2,0,0,0,2,2"/></svg>