<svg xmlns="http://www.w3.org/2000/svg" viewBox="0 0 42.5 42.5"><defs><style>.a,.b,.c{stroke:#fff;}.a,.c{stroke-miterlimit:10;}.a{stroke-width:0.5px;}.b{fill:none;}.c{fill:#fff;}</style></defs><title>Recurso 16</title><path class="a" d="M21.25,42.25a21,21,0,1,0-21-21,21,21,0,0,0,21,21"/><line class="b" x1="8.35" y1="24.45" x2="19.48" y2="8.33"/><path class="c" d="M8.35,26.45a2,2,0,1,0-2-2,2,2,0,0,0,2,2"/><path class="c" d="M19.48,10.33a2,2,0,1,0-2-2,2,2,0,0,0,2,2"/><line class="b" x1="31.32" y1="19.57" x2="19.35" y2="7.97"/><path class="c" d="M31.32,21.57a2,2,0,1,0-2-2,2,2,0,0,0,2,2"/><line class="b" x1="8.35" y1="24.45" x2="20.02" y2="31.56"/><path class="c" d="M20,33.56a2,2,0,1,0-2-2,2,2,0,0,0,2,2"/><line class="b" x1="31.35" y1="19.87" x2="20.35" y2="32.45"/></svg>