<svg xmlns="http://www.w3.org/2000/svg" viewBox="0 0 42.5 42.5"><defs><style>.a{fill:#fff;}.b,.c{fill:none;stroke:#000;}.b{stroke-width:0.5px;}</style></defs><title>Recurso 24</title><path class="a" d="M21.25,42.25a21,21,0,1,0-21-21,21,21,0,0,0,21,21"/><circle class="b" cx="21.25" cy="21.25" r="21"/><path class="c" d="M21.6,33.19v-4.5H31a2,2,0,0,0,2-2v-13a2,2,0,0,0-2-2H12a2,2,0,0,0-2,2v13a2,2,0,0,0,2,2h5.89Z"/><line class="c" x1="12.45" y1="16.9" x2="30.45" y2="16.9"/><line class="c" x1="12.45" y1="20.37" x2="30.45" y2="20.37"/><line class="c" x1="12.45" y1="23.83" x2="30.45" y2="23.83"/></svg>