<svg xmlns="http://www.w3.org/2000/svg" viewBox="0 0 42 42" width="42" height="42">
	<style>
		tspan { white-space:pre }
		.shp0 { fill: #ffffff } 
		.shp1 { fill: #000000 } 
		.shp2 { fill: none;stroke: #000000;stroke-width: 1.5 } 
	</style>
	<path id="Layer" class="shp0" d="M21 41.75C9.53 41.75 0.25 32.47 0.25 21C0.25 9.53 9.53 0.25 21 0.25C32.47 0.25 41.75 9.53 41.75 21C41.75 32.47 32.47 41.75 21 41.75Z" />
	<path id="Layer" fill-rule="evenodd" class="shp1" d="M21 0.5C29.29 0.5 36.77 5.49 39.94 13.15C43.11 20.82 41.36 29.63 35.5 35.5C29.63 41.36 20.82 43.11 13.15 39.94C5.49 36.77 0.5 29.29 0.5 21C0.5 18.31 1.04 15.65 2.07 13.16C3.1 10.67 4.61 8.42 6.51 6.51C8.42 4.61 10.67 3.1 13.16 2.07C15.65 1.04 18.31 0.5 21 0.5ZM1.6 12.96C-1.65 20.81 0.14 29.84 6.15 35.85C12.16 41.86 21.19 43.65 29.04 40.4C36.88 37.15 42 29.49 42 21C42 18.24 41.46 15.51 40.4 12.96C39.35 10.42 37.8 8.1 35.85 6.15C33.9 4.2 31.58 2.65 29.04 1.6C26.49 0.54 23.76 0 21 0C12.51 0 4.85 5.12 1.6 12.96Z" />
	<path id="Layer" class="shp2" d="M9.86 16.12C11.7 12.3 15.44 9.76 19.66 9.44C23.89 9.13 27.96 11.1 30.34 14.6C32.72 18.11 33.05 22.62 31.2 26.43C29.35 30.24 25.61 32.78 21.38 33.08C15.4 33.5 10.75 29.08 9.11 23.68" />
	<path id="Layer" class="shp1" d="M7.61 8.71L9.1 8.6L9.65 15.98L16.97 14.9L17.18 16.38L8.27 17.7L7.61 8.71L7.61 8.71Z" />
</svg>