<svg xmlns="http://www.w3.org/2000/svg" viewBox="0 0 42 42"><defs><style>.a{fill:#fff;}.b{fill:none;stroke:#000;stroke-width:1.5px;}</style></defs><title>Recurso 11</title><circle class="a" cx="21" cy="21" r="20.75"/><path d="M21,.5A20.5,20.5,0,1,1,.5,21,20.53,20.53,0,0,1,21,.5M21,0A21,21,0,1,0,42,21,21,21,0,0,0,21,0Z"/><path class="b" d="M31.1,27.13A11.85,11.85,0,1,1,20.81,9.4c6,0,10.32,4.74,11.58,10.24"/><polygon points="24.82 16.81 25.55 15.51 31.99 19.15 35.16 12.46 36.51 13.11 32.66 21.25 24.82 16.81"/></svg>